<svg xmlns="http://www.w3.org/2000/svg" xmlns:xlink="http://www.w3.org/1999/xlink" viewBox="0 0 75 75" version="1.1"><g><path style="" d="M 27.191406 74.386719 C 27.191406 74.066406 27.195312 73.734375 27.203125 73.394531 L 47.800781 73.394531 C 47.8125 73.726562 47.824219 74.054688 47.828125 74.398438 L 53.050781 74.398438 C 53.011719 64.191406 48.878906 59.558594 44.71875 56.863281 C 43.257812 55.921875 41.796875 55.210938 40.507812 54.589844 C 40.347656 54.511719 40.203125 54.4375 40.042969 54.359375 C 39.304688 54.003906 38.597656 53.65625 38 53.300781 C 35.5 51.820312 33.445312 50.222656 31.804688 48.519531 L 44.101562 48.519531 C 42.804688 50.578125 41.660156 51.863281 41.632812 51.890625 L 41.789062 52.039062 C 43.015625 52.632812 44.371094 53.300781 45.734375 54.179688 C 45.902344 54.289062 46.070312 54.410156 46.238281 54.523438 C 48.386719 51.871094 54.230469 43.664062 52.84375 34.273438 C 51.851562 27.53125 47.417969 21.789062 39.660156 17.203125 C 38.742188 16.660156 37.78125 16.195312 36.765625 15.703125 C 33.9375 14.34375 31.058594 12.9375 29.203125 9.753906 L 45.054688 9.753906 C 44.125 10.960938 42.882812 12.214844 41.214844 13.496094 C 41.628906 13.707031 42.035156 13.921875 42.429688 14.15625 C 43.667969 14.886719 44.785156 15.65625 45.851562 16.445312 C 53.027344 10.195312 53.027344 3.921875 53.027344 0.453125 L 47.808594 0.453125 L 47.808594 1.125 L 27.1875 1.125 C 27.179688 0.898438 27.167969 0.6875 27.167969 0.453125 L 21.945312 0.453125 C 21.945312 14.355469 29.5 17.996094 34.496094 20.40625 C 35.410156 20.847656 36.277344 21.265625 37 21.695312 C 39.855469 23.382812 42.125 25.226562 43.855469 27.207031 L 30.449219 27.207031 C 31.398438 25.605469 32.320312 24.375 32.867188 23.703125 C 32.707031 23.628906 32.5625 23.554688 32.402344 23.476562 C 31.109375 22.855469 29.648438 22.144531 28.191406 21.203125 C 25.734375 24.4375 20.882812 32.078125 22.15625 40.722656 C 23.148438 47.460938 27.585938 53.203125 35.34375 57.792969 C 36.257812 58.335938 37.21875 58.800781 38.238281 59.289062 C 40.921875 60.585938 43.65625 61.910156 45.515625 64.765625 L 29.824219 64.765625 C 30.78125 63.402344 32.066406 62.027344 33.832031 60.675781 L 33.75 60.574219 C 33.65625 60.515625 33.558594 60.46875 33.464844 60.414062 C 31.957031 59.523438 30.613281 58.574219 29.359375 57.597656 C 22.347656 63.664062 21.96875 70.453125 21.972656 74.386719 L 22.101562 74.394531 L 27.039062 74.394531 Z M 27.355469 3.738281 L 47.632812 3.738281 C 47.484375 4.808594 47.195312 5.945312 46.644531 7.148438 L 28.054688 7.148438 C 27.738281 6.148438 27.503906 5.015625 27.355469 3.738281 M 29.078125 29.816406 L 45.78125 29.816406 C 46.4375 30.917969 46.941406 32.054688 47.28125 33.226562 L 27.832031 33.226562 C 28.164062 32.019531 28.597656 30.875 29.078125 29.816406 M 27.300781 35.835938 L 47.75 35.835938 C 47.875 37.222656 47.8125 38.585938 47.589844 39.894531 L 27.3125 39.894531 C 27.117188 38.515625 27.132812 37.152344 27.300781 35.835938 M 27.976562 42.503906 L 46.945312 42.503906 C 46.558594 43.726562 46.078125 44.867188 45.5625 45.914062 L 29.691406 45.914062 C 28.957031 44.8125 28.386719 43.679688 27.976562 42.503906 M 28.375 67.375 L 46.777344 67.375 C 47.128906 68.375 47.410156 69.492188 47.589844 70.785156 L 27.421875 70.785156 C 27.59375 69.691406 27.882812 68.546875 28.375 67.375 " stroke="none" fill-rule="nonzero" fill="rgb(0%,0%,0%)" fill-opacity="1"/></g></svg>
