<svg xmlns="http://www.w3.org/2000/svg" xmlns:xlink="http://www.w3.org/1999/xlink" version="1.1" viewBox="0 0 100 100" style="enable-background:new 0 0 100 100;" xml:space="preserve">
  <g>
  <path fill="#dc7e2c" d="M46.2094879,67.7704926c5.5,0,10.4699707,0.4900513,14.7199707,1.3300171l-2.9199829,6.4199829L40.5894928,67.960495   C42.3894806,67.8304901,44.2694855,67.7704926,46.2094879,67.7704926z M76.7294464,79.3605194   c-0.0100098,0.0300293-0.0199585,0.0700073-0.0299683,0.0999756c-0.0499878,0.1300049-0.0900269,0.2600098-0.1500244,0.3800049   c-0.0100098,0.0500488-0.039978,0.0900269-0.0599976,0.1300049c-0.0599976,0.1199951-0.1199951,0.2399902-0.1900024,0.3599854   c-0.0100098,0.0300293-0.0299683,0.0500488-0.039978,0.0800171c-1.1799927,1.9100342-3.960022,3.75-8.0400391,5.2399902   c-0.0599976,0.0200195-0.0999756,0.0599976-0.1499634,0.0900269c-5.3500366,1.9400024-12.8900146,3.2600098-21.8599854,3.2600098   c-6.2400513,0-11.7700195-0.6300049-16.3600445-1.6700439c-0.0699463-0.0299683-0.1199951-0.0699463-0.1900024-0.0799561   c-7.4899902-1.710022-12.6599731-4.5800171-13.8599854-7.5599976c-0.0100098-0.0200195-0.0199585-0.0499878-0.0299683-0.0700073   c-0.0599976-0.1699829-0.1100464-0.3400269-0.1500244-0.5100098c-0.0100098-0.0499878-0.0200195-0.0900269-0.0299683-0.1400146   c-0.0400391-0.1900024-0.0599976-0.3900146-0.0599976-0.5899658c0-0.1900024,0.0199585-0.3900146,0.0599976-0.5900269   c0.0099487-0.039978,0.0199585-0.0800171,0.0299683-0.1300049c0.039978-0.1699829,0.0900269-0.3399658,0.1500244-0.5100098   c0.0100098-0.0199585,0.0199585-0.0499878,0.0299683-0.0700073c1.2000122-2.9799805,6.3699951-5.8499756,13.8599854-7.5599976   c0.0700073-0.0099487,0.1200562-0.0499878,0.1900024-0.0799561c1.2900391-0.2900391,2.6600323-0.5499878,4.1000347-0.7800293   l-2.7600079,6.0800171c-0.2299805,0.5,0,1.0899658,0.5,1.3200073c0.1300049,0.0599976,0.2700195,0.0899658,0.4099712,0.0899658   c0.3800049,0,0.7400513-0.2199707,0.9100342-0.5899658l3.2799683-7.2200317l0.0599976-0.1199951   c0.0400391,0.0400391,0.0800171,0.0700073,0.1199951,0.1000366c0.0600586,0.0499878,0.1200562,0.0899658,0.1900024,0.1199951   l20.5200195,8.8999634l-3.2799683,7.2399902c-0.2300415,0.5,0,1.0900269,0.5,1.3200073   c0.1300049,0.0599976,0.2699585,0.0900269,0.4099731,0.0900269c0.3800049,0,0.75-0.2200317,0.9099731-0.5900269   l7.2000122-15.8699951c1.8900146,0.4299927,3.6100464,0.9400024,5.1500244,1.5   c0.0499878,0.0300293,0.0899658,0.0700073,0.1499634,0.0900269c4.0800171,1.4899902,6.8600464,3.3300171,8.0400391,5.2399902   c0.0100098,0.0300293,0.0299683,0.0499878,0.039978,0.0800171c0.0700073,0.1199951,0.1300049,0.2399902,0.1900024,0.3599854   c0.0200195,0.039978,0.0499878,0.0800171,0.0599976,0.1199951c0.0599976,0.1300049,0.1000366,0.2600098,0.1500244,0.3900146   c0.0100098,0.0299683,0.0199585,0.0700073,0.0299683,0.0999756c0.1000366,0.3200073,0.1500244,0.6500244,0.1500244,0.9700317   C76.8794708,78.710495,76.829483,79.0305023,76.7294464,79.3605194z"/>
  <path fill="#f28a30" d="M83.8794708,20.9305248c-0.5-0.2299805-1.0900269-0.0100098-1.3200073,0.4899902l-2.5299683,5.5800171   l-20.5100098-8.9000244c-0.1300049-0.0599976-0.2600098-0.0800171-0.3900146-0.0800171l2.539978-5.6099854   c0.2300415-0.5,0-1.0899658-0.5-1.3200073c-0.5-0.2299805-1.0899658-0.0100098-1.3200073,0.5L34.9194489,66.5204926   c0.7600098-0.1099854,1.5300293-0.1999512,2.3200073-0.2799683l4.5100098-9.9400024   c0.0900269,0.0999756,0.2000122,0.1799927,0.3300171,0.2299805l20.5100098,8.9000244l-0.8300171,1.8200073   c0.6799927,0.1300049,1.3499756,0.2799683,2,0.4400024l20.6199951-45.4400024   C84.6094513,21.7505322,84.3894806,21.1504955,83.8794708,20.9305248z M63.4194489,63.6105194l-20.5499878-8.9099731   c-0.1099854-0.0500488-0.2299805-0.0800171-0.3499756-0.0800171l5.039978-11.1099854   c0.0900269,0.0999756,0.2000122,0.1799927,0.3300171,0.2399902l20.5,8.8900146L63.4194489,63.6105194z M69.2194366,50.8205414   l-20.5299683-8.9100342c-0.1199951-0.0499878-0.25-0.0700073-0.3699951-0.0800171l4.6499634-10.2399921   c0.0900269,0.1000366,0.2000122,0.1900024,0.3400269,0.25l20.4899902,8.8900166L69.2194366,50.8205414z M74.6194611,38.9105072   l-20.5200195-8.9099751c-0.1199951-0.0499878-0.25-0.0700073-0.3800049-0.0800171l4.6500244-10.25   c0.0999756,0.1099854,0.210022,0.2000122,0.3499756,0.2600098l20.4800415,8.8900146L74.6194611,38.9105072z"/><path d="M36.3494415,68.2205048l-0.0599976,0.1199951c0.0599976,0,0.1199951-0.0100098,0.1799927-0.0199585   C36.4294586,68.2905121,36.3894806,68.2605438,36.3494415,68.2205048z"/>
  </g>
</svg>
